<?xml version="1.0" encoding="UTF-8" standalone="no"?>
<svg
   xmlns:dc="http://purl.org/dc/elements/1.1/"
   xmlns:cc="http://creativecommons.org/ns#"
   xmlns:rdf="http://www.w3.org/1999/02/22-rdf-syntax-ns#"
   xmlns:svg="http://www.w3.org/2000/svg"
   xmlns="http://www.w3.org/2000/svg"
   xmlns:sodipodi="http://sodipodi.sourceforge.net/DTD/sodipodi-0.dtd"
   xmlns:inkscape="http://www.inkscape.org/namespaces/inkscape"
   version="1.1"
   x="0px"
   y="0px"
   viewBox="0 0 100 100"
   enable-background="new 0 0 100 100"
   xml:space="preserve"
   id="svg2"
   inkscape:version="0.91 r13725"
   sodipodi:docname="en.svg"><metadata
     id="metadata38"><rdf:RDF><cc:Work
         rdf:about=""><dc:format>image/svg+xml</dc:format><dc:type
           rdf:resource="http://purl.org/dc/dcmitype/StillImage" /></cc:Work></rdf:RDF></metadata><defs
     id="defs36" /><sodipodi:namedview
     pagecolor="#ffffff"
     bordercolor="#666666"
     borderopacity="1"
     objecttolerance="10"
     gridtolerance="10"
     guidetolerance="10"
     inkscape:pageopacity="0"
     inkscape:pageshadow="2"
     inkscape:window-width="1307"
     inkscape:window-height="480"
     id="namedview34"
     showgrid="false"
     inkscape:snap-global="true"
     inkscape:object-paths="true"
     inkscape:zoom="2.36"
     inkscape:cx="46.292762"
     inkscape:cy="66.724801"
     inkscape:window-x="0"
     inkscape:window-y="0"
     inkscape:window-maximized="0"
     inkscape:current-layer="svg2" /><rect
     style="opacity:1;fill:#ffffff;fill-opacity:1;stroke:#000000;stroke-width:0.05;stroke-miterlimit:4;stroke-dasharray:none;stroke-opacity:1"
     id="rect4332"
     width="93.667938"
     height="59.980221"
     x="3.1659999"
     y="20.019779" /><g
     id="g4316"><g
       id="g6"><polygon
         points="3.167,44.333 3.167,56.814 43.848,56.908 43.848,80 56.26,80 56.307,56.736 96.867,56.68 96.867,44.367 56.214,44.379 56.214,20 43.848,20 43.848,44.333 "
         id="polygon8"
         style="fill:#dc002e" /><polygon
         points="13.478,80 39.552,62.486 39.552,60.867 33.995,60.867 5.756,80 "
         id="polygon10"
         style="fill:#dc002e" /><polygon
         points="23.042,60.978 3.096,60.978 3.096,74.238 "
         id="polygon12"
         style="fill:#004489" /><polygon
         points="3.096,26.785 3.096,40.101 23.096,40.101 "
         id="polygon14"
         style="fill:#004489" /><polygon
         points="26.766,40.101 34.319,40.101 4.207,20 3.166,20 3.166,24.511 "
         id="polygon16"
         style="fill:#dc002e" /><polygon
         points="39.552,20 15.453,20 39.552,35.946 "
         id="polygon18"
         style="fill:#004489" /><polygon
         points="84.406,20 60.433,20 60.433,36 "
         id="polygon20"
         style="fill:#004489" /><polygon
         points="60.378,40.046 65.936,40.046 95.824,20 87.996,20 60.378,38.482 "
         id="polygon22"
         style="fill:#dc002e" /><polygon
         points="76.941,40.1 96.904,26.774 96.904,40.1 "
         id="polygon24"
         style="fill:#004489" /><polygon
         points="76.834,60.871 96.85,60.979 96.85,74.25 "
         id="polygon26"
         style="fill:#004489" /><polygon
         points="96.85,80 96.85,76.678 73.209,60.979 65.882,60.979 94.174,80 "
         id="polygon28"
         style="fill:#dc002e" /><polygon
         points="60.433,64.863 60.433,80 82.898,80 "
         id="polygon30"
         style="fill:#004489" /><polygon
         points="39.552,65.023 17.16,80 39.552,80 "
         id="polygon32"
         style="fill:#004489" /></g></g></svg>